<svg width="195" height="112" viewBox="0 0 195 112" fill="none" xmlns="http://www.w3.org/2000/svg">
<mask id="mask0_113_73" style="mask-type:alpha" maskUnits="userSpaceOnUse" x="0" y="0" width="307" height="349">
<ellipse cx="153.315" cy="174.141" rx="153.315" ry="174.141" fill="#F3B244" fill-opacity="0.54"/>
</mask>
<g mask="url(#mask0_113_73)">
<path d="M-176.491 318.731C-176.491 316.117 -176.491 313.519 -176.491 310.937C-146.452 293.751 -115.789 278.888 -84.502 266.107C-50.4964 252.213 -15.8668 241.659 18.7628 230.912C33.8269 226.264 48.8464 221.229 63.5985 215.275C80.2225 208.546 94.6626 196.83 106.161 179.353C114.317 166.96 120.289 152.872 125.415 138.106C131.833 119.468 136.557 100.054 141.682 80.7864C148.189 56.1447 154.83 31.5515 159.688 6.23203C164.145 -17.0541 168.557 -40.2919 173.415 -63.4328C177.872 -84.734 183.443 -105.648 191.465 -125.206C205.415 -159.24 226.585 -180.396 255.866 -187.125C269.147 -190.175 282.563 -190.998 296.022 -190.417C320.267 -189.449 344.468 -187.803 368.713 -186.835C407.443 -185.237 445.95 -187.174 484.19 -195.791C489.181 -196.953 494.128 -198.405 499.075 -199.712C509.356 -199.712 519.636 -199.712 529.917 -199.712C525.995 -198.26 522.117 -196.662 518.151 -195.404C480.758 -183.301 442.696 -177.927 404.323 -176.91C379.855 -176.233 355.432 -176.765 330.964 -176.91C312.958 -177.056 294.953 -177.298 276.992 -174.345C263.131 -172.069 249.716 -167.761 237.326 -159.046C221.058 -147.621 208.98 -130.629 199.71 -110.005C191.198 -91.1728 185.136 -70.8882 180.412 -49.9742C175.287 -27.1238 171.008 -3.93449 165.66 18.8191C157.994 51.6908 149.749 84.3205 141.638 116.999C137.181 134.863 132.011 152.339 125.014 168.799C114.941 192.521 100.59 210.046 81.2921 220.019C74.4732 223.602 67.4314 226.845 60.3004 228.927C39.0413 235.124 17.6931 240.74 -3.65509 246.549C-45.6384 258.023 -86.9532 272.595 -127.109 292.492C-143.733 300.673 -160.045 309.969 -176.491 318.731H-176.491Z" fill="#F3B244" fill-opacity="0.54"/>
<path d="M-164.591 327.01C-168.246 327.01 -171.9 326.913 -175.555 327.107C-176.714 327.155 -176.446 326.381 -176.491 325.558C-175.912 325.316 -175.288 325.17 -174.753 324.88C-131.566 298.979 -86.8196 279.034 -40.6468 264.607C-11.098 255.409 18.8073 248.825 48.7126 242.241C61.5037 239.384 74.2503 236.189 86.5511 230.283C105.493 221.182 120.066 205.351 130.228 182.404C135.131 171.22 139.231 159.602 142.395 147.402C147.164 128.715 151.621 109.834 156.167 91.0018C162.763 63.5039 169.359 36.0059 175.911 8.45949C180.323 -10.2275 184.334 -29.1082 189.058 -47.6984C194.005 -67.1115 200.646 -85.5081 209.47 -102.501C225.069 -132.661 246.284 -151.881 273.515 -159.094C283.008 -161.612 292.68 -163.645 302.351 -164.371C321.114 -165.727 339.966 -166.308 358.774 -166.646C393.092 -167.324 427.454 -168.438 461.593 -173.811C486.953 -177.781 512.045 -183.542 536.602 -192.886C536.602 -189.465 536.602 -186.044 536.602 -182.622C535.844 -182.332 535.086 -182.041 534.284 -181.751C499.254 -169.793 463.51 -163.5 427.454 -160.353C401.961 -158.174 376.379 -157.012 350.841 -155.463C332.568 -154.398 314.251 -153.382 296.111 -149.509C282.251 -146.507 268.791 -141.811 256.134 -133.484C238.707 -121.962 225.426 -104.534 214.596 -83.5232C204.835 -64.7394 198.061 -44.0675 192.668 -22.6694C186.384 2.50482 180.323 27.7758 174.44 53.0953C167.621 82.2393 161.069 111.48 154.34 140.624C150.15 158.779 145.515 176.691 138.473 193.345C129.292 215.033 116.011 230.477 98.3171 239.288C87.5316 244.661 76.3896 247.808 65.0246 249.938C42.384 254.247 19.6095 257.829 -2.98659 262.719C-58.2067 274.677 -111.377 295.639 -162.541 325.509C-163.254 325.945 -163.923 326.526 -164.591 327.01Z" fill="#F3B244" fill-opacity="0.54"/>
<path d="M-139.365 327.009C-143.822 327.009 -148.279 327.009 -152.736 327.009C-152.067 326.574 -151.488 326.041 -150.819 325.654C-127.688 312.631 -104.067 301.593 -79.9112 292.346C-35.8778 275.402 9.18082 266.301 54.7742 261.169C67.9218 259.717 81.0249 258.071 93.9052 254.004C104.2 250.761 114.05 246.016 122.919 238.173C134.373 228.007 142.262 213.967 148.189 197.798C154.206 181.386 158.485 164.152 161.783 146.53C171.409 94.7289 184.379 44.332 197.214 -6.16161C202.875 -28.5279 209.872 -50.1197 220.033 -69.7265C230.106 -89.1881 242.228 -105.842 257.827 -117.848C269.816 -127.095 282.786 -132.856 296.29 -136.777C315.811 -142.393 335.688 -144.281 355.566 -146.024C383.733 -148.444 411.9 -150.574 440.067 -153.431C464.357 -155.948 488.557 -160.257 512.491 -166.502C520.557 -168.632 528.58 -171.053 536.602 -173.376C536.602 -170.117 536.602 -166.857 536.602 -163.597C536.112 -163.452 535.666 -163.21 535.176 -163.065C498.452 -152.124 461.148 -146.411 423.711 -142.248C397.861 -139.343 372.011 -136.874 346.206 -133.872C330.028 -131.984 313.983 -128.741 298.295 -123.173C278.061 -115.96 259.878 -103.905 244.68 -84.589C230.15 -66.144 219.454 -44.2618 211.655 -20.0558C199.799 16.7372 190.306 54.6922 181.749 92.9861C176.624 115.788 172.925 139.171 168.512 162.264C165.259 179.353 161.604 196.297 155.9 212.37C146.808 238.028 132.145 254.924 111.376 262.573C99.6099 266.93 87.5764 268.818 75.4539 269.932C59.8549 271.287 44.2115 272.159 28.6126 273.805C-23.5323 279.275 -74.0728 294.186 -123.009 318.392C-128.491 321.103 -133.883 324.153 -139.365 327.009Z" fill="#F3B244" fill-opacity="0.54"/>
<path d="M536.602 -154.35C536.602 -151.09 536.602 -147.831 536.602 -144.571C536.067 -144.426 535.532 -144.28 534.998 -144.135C507.722 -137.261 480.223 -132.468 452.68 -128.547C424.914 -124.577 397.148 -120.946 369.426 -116.782C351.243 -114.071 333.281 -110.005 315.632 -103.614C276.813 -89.5749 248.201 -59.1722 229.794 -12.1158C223.465 4.00536 218.162 20.7559 213.215 37.6517C205.148 65.1981 197.482 92.9381 193.07 121.985C189.415 145.756 186.162 169.574 182.596 193.344C180.1 210.047 177.159 226.555 171.944 242.241C166.329 259.088 157.861 272.546 144.936 280.534C139.32 284.02 133.348 286.295 127.242 287.796C113.694 291.185 99.9219 291.475 86.1949 291.137C66.4511 290.701 46.752 289.539 26.9636 290.749C-19.8777 293.509 -65.3373 305.467 -109.505 325.993C-110.084 326.235 -110.574 326.671 -111.109 327.01C-116.19 327.01 -121.271 327.01 -126.351 327.01C-125.816 326.671 -125.282 326.235 -124.747 325.945C-117.883 322.653 -111.064 319.264 -104.156 316.166C-69.4376 300.674 -33.8721 290.168 2.54021 284.795C24.245 281.551 46.0834 280.292 67.9219 280.099C82.8523 280.002 97.7827 279.372 112.49 275.79C122.563 273.321 132.189 269.303 140.836 261.799C151.844 252.262 159.064 238.706 164.234 222.973C169.538 206.851 172.657 189.859 175.599 172.818C179.432 150.403 182.953 127.843 187.053 105.477C192.401 76.6717 200.513 49.0769 208.223 21.24C213.081 3.76329 218.563 -13.3745 225.426 -29.7378C243.655 -73.0665 270.797 -101.339 307.343 -114.023C323.477 -119.59 339.878 -123.221 356.457 -125.448C386.318 -129.418 416.223 -132.904 446.128 -136.777C470.953 -140.02 495.644 -144.28 520.201 -150.283C525.683 -151.591 531.12 -152.995 536.602 -154.35Z" fill="#F3B244" fill-opacity="0.54"/>
<path d="M536.602 -135.809C536.602 -132.387 536.602 -128.966 536.602 -125.545C536.068 -125.545 535.488 -125.545 534.953 -125.448C503.399 -120.123 471.845 -114.846 440.335 -109.424C417.07 -105.454 393.806 -101.678 370.585 -97.1759C353.382 -93.787 336.491 -88.4617 320.045 -80.7642C287.911 -65.7081 262.998 -39.3236 246.062 -0.255173C239.332 15.2366 233.761 31.4062 228.457 47.8179C220.212 73.331 213.17 99.2798 209.159 126.584C205.594 150.839 203.321 175.383 201.181 199.928C199.532 218.47 198.062 237.109 194.897 255.36C193.204 265.236 191.109 274.87 187.855 284.068C181.616 301.4 171.321 311.711 157.059 315.197C152.112 316.407 146.986 317.037 141.95 317.279C124.524 318.053 107.231 315.149 89.9389 312.583C72.067 309.969 54.1505 307.403 36.1004 307.064C2.40674 306.434 -30.8412 311.469 -63.5989 321.878C-68.4569 323.379 -73.2257 325.315 -78.0836 327.01C-84.2637 327.01 -90.4439 327.01 -96.624 327.01C-96.0892 326.719 -95.5098 326.332 -94.9304 326.09C-84.6351 322.265 -74.429 318.102 -64.0446 314.713C-20.6796 300.625 23.2647 295.735 67.833 299.512C84.2787 300.915 100.724 301.835 117.17 302.513C126.307 302.852 135.443 301.593 144.446 298.785C160.268 293.896 171.722 281.841 178.63 262.428C182.641 251.196 185.449 239.384 187.098 227.184C190.084 205.931 192.803 184.63 195.298 163.232C199.666 125.616 206.128 88.726 217.137 53.3368C223.822 31.7451 230.329 10.0566 239.154 -10.2764C252.435 -40.7759 270.53 -64.643 294.596 -80.4253C309.75 -90.3014 325.794 -96.5949 342.24 -101.146C367.109 -108.069 392.379 -111.409 417.56 -115.33C449.917 -120.414 482.318 -125.594 514.675 -130.967C522.029 -132.178 529.293 -134.163 536.602 -135.809Z" fill="#F3B244" fill-opacity="0.54"/>
<path d="M237.994 -199.712C237.682 -199.519 237.37 -199.228 237.014 -199.131C213.125 -190.853 196.323 -171.246 185.047 -142.877C178.228 -125.642 173.415 -107.294 169.716 -88.607C164.546 -62.6582 159.643 -36.6126 155.097 -10.4701C149.838 19.4 142.663 48.3988 134.551 77.1071C129.203 96.1329 124.211 115.401 117.348 133.652C111.599 148.999 104.824 163.377 95.6431 175.625C84.3227 190.73 70.6403 200.8 55.5762 207.771C37.9271 215.952 19.7878 221.956 1.6931 228.007C-35.9225 240.594 -73.3599 253.762 -110.084 270.416C-131.834 280.292 -153.36 290.991 -174.575 302.755C-175.198 303.094 -175.867 303.336 -176.491 303.626C-176.491 301.012 -176.491 298.414 -176.491 295.832C-175.956 295.59 -175.421 295.348 -174.931 295.058C-159.065 287.021 -143.243 278.694 -127.288 270.997C-89.3599 252.649 -50.5409 237.883 -11.5882 223.602C8.24464 216.34 28.0775 208.981 47.3311 199.299C58.5623 193.635 69.1695 186.615 78.7071 176.884C91.8548 163.377 101.392 146.142 109.058 126.923C115.61 110.511 120.646 93.1798 125.727 75.8968C133.615 49.1734 140.969 22.3047 145.56 -5.77417C150.239 -34.3856 154.83 -62.9971 159.688 -91.5601C163.209 -112.087 167.22 -132.468 173.192 -152.123C178.629 -170.036 186.117 -186.109 197.571 -198.599C197.838 -198.889 198.016 -199.325 198.239 -199.712C211.491 -199.712 224.743 -199.712 237.994 -199.712Z" fill="#F3B244" fill-opacity="0.54"/>
<path d="M182.641 327.01C183.651 326.074 184.646 325.138 185.627 324.202C190.173 319.796 193.471 314.084 196.056 307.596C200.78 295.687 203.276 282.809 204.524 269.641C206.485 249.405 208 229.121 209.382 208.788C211.075 183.129 212.858 157.471 216.29 132.103C220.212 102.814 227.922 75.1706 237.059 48.1568C242.407 32.2292 248.156 16.5922 255.198 1.77813C271.599 -32.8364 294.819 -56.413 323.655 -70.9366C341.571 -79.9412 360.156 -85.9927 379.053 -89.8173C403.343 -94.6585 427.722 -98.8219 452.056 -102.985C479.599 -107.73 507.187 -112.087 534.775 -116.589C535.354 -116.686 535.978 -116.734 536.602 -116.783C536.602 -113.523 536.602 -110.279 536.602 -107.052C536.067 -106.907 535.533 -106.761 534.953 -106.665C515.789 -103.695 496.61 -100.742 477.416 -97.8052C447.466 -93.1577 417.427 -88.8006 387.7 -81.6841C368.312 -77.0849 349.193 -71.1303 330.741 -61.7383C302.975 -47.5536 279.978 -25.3326 263.711 7.82963C249.27 37.3125 238.485 69.1675 230.552 102.572C224.134 129.731 221.549 157.858 220.257 186.131C218.964 213.387 218.251 240.691 217.137 267.947C216.29 287.941 214.997 307.838 210.14 327.01C200.988 327.01 191.822 327.01 182.641 327.01Z" fill="#F3B244" fill-opacity="0.54"/>
<path d="M158.529 -199.712C164.59 -199.712 170.652 -199.712 176.713 -199.712C174.351 -194.193 171.721 -188.868 169.626 -183.156C164.278 -168.584 160.668 -153.14 158.172 -137.406C153.225 -106.616 148.501 -75.7778 144.089 -44.891C138.741 -7.56537 132.367 29.2277 121.002 64.3748C115.253 82.2388 110.128 100.49 103.131 117.676C95.242 137.09 85.5261 154.518 72.3339 168.364C62.1723 178.966 50.7628 186.421 38.8631 192.812C19.3422 203.317 -0.758148 211.353 -20.9476 219.245C-64.8028 236.431 -108.524 254.295 -151.31 275.887C-159.733 280.147 -168.112 284.601 -176.491 289.006C-176.491 286.231 -176.491 283.455 -176.491 280.679C-175.778 280.437 -175.065 280.244 -174.396 279.905C-157.772 271.723 -141.282 263.009 -124.48 255.505C-90.1176 240.159 -55.5772 225.441 -21.1259 210.482C-1.96149 202.204 17.0246 193.393 35.5205 182.694C63.0191 166.766 83.5651 141.398 97.1584 106.299C101.972 93.8092 106.384 80.9316 110.618 68.0541C118.061 45.6393 124.746 22.8373 128.891 -1.12659C134.462 -33.5142 138.161 -66.2891 142.217 -99.0155C146.362 -132.952 149.437 -167.18 158.529 -199.712Z" fill="#F3B244" fill-opacity="0.54"/>
<path d="M132.501 -199.712C136.72 -199.712 140.939 -199.712 145.159 -199.712C145.114 -198.986 145.069 -198.26 144.98 -197.534C142.796 -180.735 140.301 -163.984 138.473 -147.089C134.551 -111.119 131.03 -75.1001 127.242 -39.13C121.983 11.3637 107.855 57.8391 89.4035 102.233C79.8214 125.277 67.1194 144.981 50.3171 159.698C38.5065 170.058 25.76 178.24 12.6569 185.453C-9.00328 197.459 -31.3766 207.093 -53.6607 216.824C-94.8864 234.785 -135.934 253.375 -176.491 273.853C-176.491 271.11 -176.491 268.35 -176.491 265.575C-175.778 265.333 -175.065 265.139 -174.352 264.8C-158.976 257.442 -143.6 249.889 -128.179 242.724C-94.1733 226.845 -60.0786 211.353 -26.1175 195.377C-7.75536 186.76 10.1611 176.739 27.3199 164.442C49.7823 148.321 68.0108 126.487 80.9355 97.3432C85.0804 87.9029 88.8242 78.2205 92.657 68.5381C107.097 32.0355 115.833 -6.79083 120.111 -47.5053C123.543 -79.796 125.95 -112.232 128.133 -144.668C129.337 -163.065 131.03 -181.364 132.501 -199.712Z" fill="#F3B244" fill-opacity="0.54"/>
<path d="M111.732 -199.712C115.179 -199.712 118.64 -199.712 122.117 -199.712C122.072 -198.405 122.072 -197.098 121.983 -195.791C121.404 -183.979 120.735 -172.118 120.245 -160.305C118.774 -126.126 117.482 -91.9474 113.961 -58.0107C111.465 -34.192 108.523 -10.5185 102.819 12.3319C96.5345 37.4577 87.3979 60.889 77.5929 83.9331C64.8018 113.997 46.9299 137.525 24.4229 155.195C10.0274 166.475 -4.94759 176.206 -20.5911 184.001C-48.7137 198.04 -76.97 211.499 -105.226 225.006C-128.937 236.382 -152.736 247.517 -176.491 258.749C-176.491 255.973 -176.491 253.214 -176.491 250.47C-169.717 247.372 -162.942 244.37 -156.212 241.127C-119.934 223.795 -83.6106 206.609 -47.4657 188.89C-28.1231 179.401 -9.18156 168.46 8.77946 154.905C27.1416 140.962 43.721 124.212 57.0915 102.33C66.8965 86.3537 74.2503 68.4413 81.5149 50.3837C91.5874 25.2095 98.7183 -1.17503 102.507 -29.2056C107.231 -63.7717 109.459 -98.6283 110.261 -133.679C110.737 -155.69 111.227 -177.701 111.732 -199.712Z" fill="#F3B244" fill-opacity="0.54"/>
<path d="M93.5038 -199.712C96.6236 -199.712 99.7285 -199.712 102.819 -199.712C102.863 -198.889 102.952 -198.066 102.952 -197.292C102.908 -184.753 102.863 -172.263 102.863 -159.724C102.774 -127.966 102.328 -96.2077 99.476 -64.5947C97.4704 -43.003 94.7517 -21.6533 90.1166 -0.739349C85.838 18.2865 78.7517 35.5696 71.8882 53.0463C56.0219 93.4218 33.3812 125.18 3.56497 148.273C-14.6189 162.36 -33.7833 173.737 -53.3042 184.049C-91.6329 204.285 -130.63 222.246 -169.627 240.207C-171.9 241.272 -174.218 242.192 -176.491 243.16C-176.491 240.384 -176.491 237.609 -176.491 234.833C-175.733 234.591 -174.931 234.446 -174.173 234.107C-150.909 223.263 -127.6 212.612 -104.379 201.429C-79.2875 189.374 -54.3738 176.594 -30.3069 161.15C-12.1231 149.483 5.21399 136.073 20.7683 118.887C39.3979 98.3115 53.5706 73.1373 65.4258 45.3972C75.9884 20.6103 84.0553 -5.19325 87.9327 -33.1753C91.1417 -56.6067 93.4592 -80.1349 93.7712 -103.905C94.1278 -133.63 93.7712 -163.403 93.7266 -193.128C93.7266 -195.307 93.5929 -197.485 93.5038 -199.712Z" fill="#F3B244" fill-opacity="0.54"/>
<path d="M77.5484 -199.712C80.2819 -199.712 83.0005 -199.712 85.7043 -199.712C86.0163 -188.094 86.3729 -176.475 86.6403 -164.856C87.398 -134.695 87.5317 -104.583 85.3033 -74.5191C84.0554 -57.5749 82.0497 -40.8244 79.242 -24.2191C75.008 0.713043 66.4954 23.1278 56.8241 45.01C39.6207 83.8848 16.7126 115.353 -12.6133 138.736C-26.7415 150.015 -41.4936 159.746 -56.6022 168.509C-87.4881 186.47 -119.132 201.719 -150.998 216.291C-159.466 220.164 -167.978 223.795 -176.491 227.523C-176.491 224.78 -176.491 222.02 -176.491 219.245C-153.984 208.836 -131.343 198.815 -108.97 187.922C-83.878 175.674 -59.3655 161.828 -35.7443 145.223C-2.49632 121.84 25.0469 90.3719 45.1918 48.2052C53.1249 31.5999 60.8798 14.8493 66.0943 -3.64403C73.7155 -30.8031 76.7907 -59.1241 78.3506 -87.8808C79.6431 -112.522 79.3311 -137.261 78.618 -161.951C78.2615 -174.538 77.9049 -187.125 77.5484 -199.712Z" fill="#F3B244" fill-opacity="0.54"/>
<path d="M-176.491 211.45C-176.491 208.513 -176.491 205.576 -176.491 202.639C-175.822 202.446 -175.154 202.3 -174.53 202.01C-161.293 196.249 -148.012 190.778 -134.909 184.63C-107.633 171.752 -80.9365 157.132 -55.2206 139.365C-18.6746 114.094 11.409 79.576 33.5149 33.3427C44.2559 10.8795 53.6598 -12.3098 58.1612 -38.5007C61.5929 -58.5432 63.4648 -78.8278 64.2225 -99.3545C65.203 -126.514 64.3562 -153.624 63.2865 -180.735C63.0637 -187.028 62.8854 -193.37 62.7072 -199.712C65.2921 -199.712 67.8919 -199.712 70.5066 -199.712C70.462 -198.986 70.4175 -198.26 70.4175 -197.534C70.8631 -184.366 71.398 -171.246 71.7545 -158.078C72.6013 -128.402 72.6905 -98.7735 70.1501 -69.1938C67.1194 -34.192 59.7211 -1.22346 45.4592 29.034C31.955 57.7907 16.5789 84.3204 -3.34308 106.057C-20.5464 124.841 -39.6663 139.558 -59.722 152.339C-89.2708 171.268 -119.978 186.615 -151.087 200.606C-159.51 204.43 -168.023 207.868 -176.491 211.45Z" fill="#F3B244" fill-opacity="0.54"/>
<path d="M48.2224 -199.712C50.6886 -199.712 53.1546 -199.712 55.6208 -199.712C56.2001 -186.06 56.8241 -172.408 57.2698 -158.804C58.2503 -129.031 58.2949 -99.306 55.2197 -69.6779C52.8575 -46.6338 48.7572 -24.1707 40.735 -3.20833C32.8909 17.2699 23.5316 36.4894 12.7906 54.5471C-6.86398 87.5156 -31.3766 112.787 -59.2318 132.829C-86.7304 152.581 -115.655 168.073 -145.204 181.58C-155.544 186.324 -166.062 190.439 -176.491 194.845C-176.491 191.779 -176.491 188.697 -176.491 185.598C-176.016 185.405 -175.54 185.211 -175.065 185.017C-137.761 170.784 -101.705 152.533 -67.4769 128.23C-29.8612 101.458 0.489777 64.6168 22.7739 16.4953C31.5984 -2.57898 39.3088 -22.2826 43.4536 -44.2132C48.4453 -70.4041 50.4509 -97.0791 50.228 -123.948C50.0052 -149.219 48.9355 -174.441 48.2224 -199.712Z" fill="#F3B244" fill-opacity="0.54"/>
<path d="M-176.491 177.32C-176.491 173.899 -176.491 170.478 -176.491 167.056C-175.689 166.911 -174.887 166.814 -174.129 166.572C-142.352 155.341 -111.911 139.655 -82.853 119.177C-44.3014 91.9211 -13.3264 54.1598 9.62628 5.02168C21.3923 -20.2009 29.994 -46.8759 33.2475 -76.3588C35.9662 -100.565 36.7238 -124.916 36.189 -149.316C35.7879 -166.115 35.0748 -182.913 34.4508 -199.712C36.8278 -199.712 39.1899 -199.712 41.5372 -199.712C41.6263 -198.405 41.8046 -197.098 41.8492 -195.839C42.2948 -184.656 42.8297 -173.425 43.1862 -162.242C44.1221 -133.775 44.1221 -105.358 41.1361 -77.085C38.8631 -55.6385 34.9856 -34.8213 27.6319 -15.3113C5.74884 42.6378 -26.2958 87.9513 -69.1705 119.903C-97.0257 140.624 -126.396 156.599 -156.792 169.477C-163.299 172.237 -169.939 174.706 -176.491 177.32V177.32Z" fill="#F3B244" fill-opacity="0.54"/>
<path d="M-176.491 158.294C-176.491 154.711 -176.491 151.129 -176.491 147.546C-176.268 147.45 -176.001 147.304 -175.778 147.256C-148.903 139.123 -123.41 126.148 -98.9867 109.446C-57.761 81.2705 -25.2707 40.9918 -1.73865 -11.632C7.70984 -32.6428 15.019 -54.7186 18.3171 -78.9246C21.4814 -102.211 22.5511 -125.691 22.1945 -149.316C21.9717 -166.115 21.2586 -182.913 20.7238 -199.712C23.1899 -199.712 25.6709 -199.712 28.1667 -199.712C28.1221 -198.744 28.0775 -197.776 28.1221 -196.808C28.345 -190.466 28.6569 -184.124 28.8798 -177.782C29.9048 -149.025 30.3505 -120.317 27.721 -91.6085C25.8491 -70.6946 22.5511 -50.1679 15.6876 -31.0452C-1.64951 17.0763 -26.2512 57.355 -59.0089 88.8228C-82.2736 111.141 -107.9 127.601 -134.73 141.059C-148.368 147.885 -162.318 153.598 -176.491 158.294H-176.491Z" fill="#F3B244" fill-opacity="0.54"/>
<path d="M-6.37376 -199.712C-3.90765 -199.712 -1.44154 -199.712 1.02457 -199.712C1.11371 -196.953 1.15828 -194.193 1.20285 -191.434C1.91594 -165.969 2.09421 -140.553 -0.0896454 -115.234C-1.87238 -94.6101 -5.17043 -74.5191 -11.9002 -55.59C-27.4546 -11.7288 -49.4713 25.5484 -78.3961 55.5154C-107.366 85.5308 -139.811 105.767 -176.491 113.416C-176.491 108.543 -176.491 103.669 -176.491 98.7956C-175.644 98.6988 -174.753 98.6988 -173.906 98.5536C-155.054 95.3584 -137.271 87.3704 -120.379 76.1873C-81.4268 50.3353 -51.6552 11.751 -29.5938 -37.3871C-21.215 -56.0742 -14.2178 -75.5842 -10.7415 -97.0307C-5.25957 -130.967 -5.39325 -165.292 -6.37376 -199.712Z" fill="#F3B244" fill-opacity="0.54"/>
<path d="M-176.491 137.332C-176.491 133.265 -176.491 129.198 -176.491 125.132C-175.198 124.841 -173.906 124.648 -172.658 124.309C-106.385 104.702 -54.463 58.178 -18.2735 -17.6835C-10.3849 -34.2404 -3.52139 -51.5235 0.712601 -70.4041C5.70425 -92.5768 7.79895 -115.33 8.02179 -138.278C8.20007 -158.756 7.62068 -179.234 7.35327 -199.712C9.70053 -199.712 12.0478 -199.712 14.3951 -199.712C15.7321 -167.857 16.6235 -136.051 13.9939 -104.244C12.3449 -84.2015 9.35884 -64.4978 3.03014 -46.0045C-11.7665 -2.6758 -33.1593 34.2625 -60.7917 64.8589C-84.0117 90.5656 -110.396 109.011 -138.742 122.953C-151.042 129.005 -163.566 133.991 -176.491 137.332V137.332Z" fill="#F3B244" fill-opacity="0.54"/>
</g>
</svg>
