<svg width="195" height="135" viewBox="0 0 195 135" fill="none" xmlns="http://www.w3.org/2000/svg">
<path d="M2.32143 110.479C1.39452 117.077 1.92418 130.749 11.4581 132.649C23.3755 135.025 42.8406 125.919 56.347 87.1201C69.8534 48.3212 50.4585 75.7434 47.6076 83.5569C44.4296 92.2669 44.4296 110.479 53.9635 110.479C61.5907 110.479 79.917 89.0996 88.1268 78.4101C92.0992 73.2633 100.6 59.169 102.825 43.9662C105.049 28.7633 92.8937 46.0777 86.5378 56.6352C81.6384 64.9493 75.6532 81.9733 90.9075 83.5569C106.162 85.1405 130.367 47.7933 140.563 28.9217C142.417 25.6225 145.251 18.8656 141.755 18.2322C138.259 17.5987 132.354 30.3734 129.838 36.8398C127.851 41.7227 125.547 51.8843 132.221 53.4679C138.895 55.0516 175.521 19.8158 193 2" stroke="#5DD7CA" stroke-width="3"/>
</svg>
